<?xml version="1.0" encoding="utf-8"?>
<!-- Generator: Adobe Illustrator 22.1.0, SVG Export Plug-In . SVG Version: 6.00 Build 0)  -->
<svg version="1.1" id="Layer_1" xmlns="http://www.w3.org/2000/svg" xmlns:xlink="http://www.w3.org/1999/xlink" x="0px" y="0px"
	 viewBox="0 0 442.8 198.1" style="enable-background:new 0 0 442.8 198.1;" xml:space="preserve">
<style type="text/css">
	.st0{fill:#3642ce;}
</style>
<g>
	<g>
		<polyline class="st0" points="44.8,84.9 36.1,45.4 89.7,88.1 98.8,76.3 110.4,74 123,71.5 110.4,90.9 110.4,117 45.9,152.7 
			63.6,124.4 80.2,114.2 62.9,118.3 48,93.1 78.9,101.6 		"/>
	</g>
	<path class="st0" d="M194.1,74L194.1,74c-0.4,0.9-1.4,2.9-2.6,5.5h-25.2v13h19c-0.8,1.8-1.7,3.5-2.5,5.3h-16.4v19.5h-5.6l0-43.3
		L194.1,74z"/>
	<path class="st0" d="M341.6,73.8c0,0.7,0,1.6,0,2.7v28.3l-30.5-32.1l0,0v44.4h5.3V86.5l30.5,31.7l0,0V76.5c0-1.1,0-2,0-2.7H341.6z"
		/>
	<path class="st0" d="M284.1,73.9v24.5c0,9.3-4.3,13.7-12.5,13.7s-12.5-4.4-12.5-13.7V73.9h-5.3v24.8c0,12.2,6.2,18.5,17.7,18.5
		s17.7-6.4,17.7-18.5V73.9H284.1z"/>
	<path class="st0" d="M218.7,73.5c0,0-21,43.7-20.8,43.7h6l14.8-32.2l14.8,32.2h6C239.7,117.2,218.7,73.5,218.7,73.5z"/>
	<path class="st0" d="M385.9,73.5c0,0-21,43.7-20.8,43.7h6l14.8-32.2l14.8,32.2h6C406.9,117.2,385.9,73.5,385.9,73.5z"/>
</g>
</svg>
